%TF.GenerationSoftware,KiCad,Pcbnew,(5.1.7)-1*%
%TF.CreationDate,2021-04-21T21:28:38-05:00*%
%TF.ProjectId,blinky_kit_pcb,626c696e-6b79-45f6-9b69-745f7063622e,1.0*%
%TF.SameCoordinates,Original*%
%TF.FileFunction,Copper,L2,Bot*%
%TF.FilePolarity,Positive*%
%FSLAX46Y46*%
G04 Gerber Fmt 4.6, Leading zero omitted, Abs format (unit mm)*
G04 Created by KiCad (PCBNEW (5.1.7)-1) date 2021-04-21 21:28:38*
%MOMM*%
%LPD*%
G01*
G04 APERTURE LIST*
%TA.AperFunction,ComponentPad*%
%ADD10C,2.100000*%
%TD*%
%TA.AperFunction,SMDPad,CuDef*%
%ADD11R,3.200000X4.200000*%
%TD*%
%TA.AperFunction,ComponentPad*%
%ADD12C,1.219200*%
%TD*%
%TA.AperFunction,ComponentPad*%
%ADD13R,1.800000X1.800000*%
%TD*%
%TA.AperFunction,ComponentPad*%
%ADD14C,1.800000*%
%TD*%
%TA.AperFunction,ViaPad*%
%ADD15C,0.508000*%
%TD*%
%TA.AperFunction,Conductor*%
%ADD16C,0.508000*%
%TD*%
%TA.AperFunction,Conductor*%
%ADD17C,0.304800*%
%TD*%
%TA.AperFunction,Conductor*%
%ADD18C,0.254000*%
%TD*%
%TA.AperFunction,Conductor*%
%ADD19C,0.100000*%
%TD*%
G04 APERTURE END LIST*
D10*
%TO.P,J1,2*%
%TO.N,VCC*%
X155402800Y-114858800D03*
%TO.P,J1,1*%
%TO.N,GND*%
%TA.AperFunction,ComponentPad*%
G36*
G01*
X127342800Y-115908800D02*
X125742800Y-115908800D01*
G75*
G02*
X125492800Y-115658800I0J250000D01*
G01*
X125492800Y-114058800D01*
G75*
G02*
X125742800Y-113808800I250000J0D01*
G01*
X127342800Y-113808800D01*
G75*
G02*
X127592800Y-114058800I0J-250000D01*
G01*
X127592800Y-115658800D01*
G75*
G02*
X127342800Y-115908800I-250000J0D01*
G01*
G37*
%TD.AperFunction*%
%TD*%
D11*
%TO.P,BT1,2*%
%TO.N,GND*%
X126320000Y-97790000D03*
%TO.P,BT1,1*%
%TO.N,VCC*%
X155620000Y-97790000D03*
%TD*%
D12*
%TO.P,C1,2*%
%TO.N,Net-(C1-Pad2)*%
X125500000Y-109220000D03*
%TO.P,C1,1*%
%TO.N,Net-(C1-Pad1)*%
X127000000Y-109220000D03*
%TD*%
%TO.P,C2,1*%
%TO.N,Net-(C2-Pad1)*%
X154940000Y-109220000D03*
%TO.P,C2,2*%
%TO.N,Net-(C2-Pad2)*%
X156440000Y-109220000D03*
%TD*%
D13*
%TO.P,D1,1*%
%TO.N,Net-(D1-Pad1)*%
X156210000Y-83820000D03*
D14*
%TO.P,D1,2*%
%TO.N,VCC*%
X153670000Y-83820000D03*
%TD*%
%TO.P,D2,2*%
%TO.N,VCC*%
X128270000Y-83820000D03*
D13*
%TO.P,D2,1*%
%TO.N,Net-(D2-Pad1)*%
X125730000Y-83820000D03*
%TD*%
D15*
%TO.N,GND*%
X152273000Y-98679000D03*
X127889000Y-94615000D03*
%TO.N,Net-(C1-Pad2)*%
X137160000Y-85979000D03*
X139827000Y-85979000D03*
%TO.N,Net-(C2-Pad2)*%
X146357382Y-86814618D03*
X143637000Y-86814618D03*
%TD*%
D16*
%TO.N,VCC*%
X153543000Y-112999000D02*
X155402800Y-114858800D01*
X153543000Y-99867000D02*
X153543000Y-112999000D01*
X155620000Y-97790000D02*
X153543000Y-99867000D01*
X155620000Y-85770000D02*
X153670000Y-83820000D01*
X155620000Y-97790000D02*
X155620000Y-85770000D01*
X153670000Y-83820000D02*
X128270000Y-83820000D01*
D17*
%TO.N,Net-(C1-Pad2)*%
X137160000Y-85979000D02*
X139827000Y-85979000D01*
%TO.N,Net-(C2-Pad2)*%
X146357382Y-86814618D02*
X143637000Y-86814618D01*
%TD*%
D18*
%TO.N,GND*%
X157844545Y-79438909D02*
X158195208Y-79544780D01*
X158518625Y-79716744D01*
X158802484Y-79948254D01*
X159035965Y-80230486D01*
X159210183Y-80552695D01*
X159318502Y-80902614D01*
X159360001Y-81297452D01*
X159360000Y-112997721D01*
X159296904Y-113641221D01*
X159119394Y-114229164D01*
X158831063Y-114771436D01*
X158442906Y-115247364D01*
X157969686Y-115638845D01*
X157429449Y-115930950D01*
X156842756Y-116112563D01*
X156495488Y-116149062D01*
X156711625Y-115932925D01*
X156896028Y-115656947D01*
X157023046Y-115350296D01*
X157087800Y-115024758D01*
X157087800Y-114692842D01*
X157023046Y-114367304D01*
X156896028Y-114060653D01*
X156711625Y-113784675D01*
X156476925Y-113549975D01*
X156200947Y-113365572D01*
X155894296Y-113238554D01*
X155568758Y-113173800D01*
X155236842Y-113173800D01*
X155018472Y-113217237D01*
X154432000Y-112630765D01*
X154432000Y-110356725D01*
X154576964Y-110416771D01*
X154817418Y-110464600D01*
X155062582Y-110464600D01*
X155303036Y-110416771D01*
X155529539Y-110322950D01*
X155690000Y-110215734D01*
X155850461Y-110322950D01*
X156076964Y-110416771D01*
X156317418Y-110464600D01*
X156562582Y-110464600D01*
X156803036Y-110416771D01*
X157029539Y-110322950D01*
X157233386Y-110186744D01*
X157406744Y-110013386D01*
X157542950Y-109809539D01*
X157636771Y-109583036D01*
X157684600Y-109342582D01*
X157684600Y-109097418D01*
X157636771Y-108856964D01*
X157542950Y-108630461D01*
X157406744Y-108426614D01*
X157233386Y-108253256D01*
X157029539Y-108117050D01*
X156803036Y-108023229D01*
X156562582Y-107975400D01*
X156317418Y-107975400D01*
X156076964Y-108023229D01*
X155850461Y-108117050D01*
X155690000Y-108224266D01*
X155529539Y-108117050D01*
X155303036Y-108023229D01*
X155062582Y-107975400D01*
X154817418Y-107975400D01*
X154576964Y-108023229D01*
X154432000Y-108083275D01*
X154432000Y-100528072D01*
X157220000Y-100528072D01*
X157344482Y-100515812D01*
X157464180Y-100479502D01*
X157574494Y-100420537D01*
X157671185Y-100341185D01*
X157750537Y-100244494D01*
X157809502Y-100134180D01*
X157845812Y-100014482D01*
X157858072Y-99890000D01*
X157858072Y-95690000D01*
X157845812Y-95565518D01*
X157809502Y-95445820D01*
X157750537Y-95335506D01*
X157671185Y-95238815D01*
X157574494Y-95159463D01*
X157464180Y-95100498D01*
X157344482Y-95064188D01*
X157220000Y-95051928D01*
X156509000Y-95051928D01*
X156509000Y-85813659D01*
X156513300Y-85769999D01*
X156509000Y-85726339D01*
X156509000Y-85726333D01*
X156496136Y-85595726D01*
X156496136Y-85595724D01*
X156445302Y-85428147D01*
X156436829Y-85412296D01*
X156407846Y-85358072D01*
X157110000Y-85358072D01*
X157234482Y-85345812D01*
X157354180Y-85309502D01*
X157464494Y-85250537D01*
X157561185Y-85171185D01*
X157640537Y-85074494D01*
X157699502Y-84964180D01*
X157735812Y-84844482D01*
X157748072Y-84720000D01*
X157748072Y-82920000D01*
X157735812Y-82795518D01*
X157699502Y-82675820D01*
X157640537Y-82565506D01*
X157561185Y-82468815D01*
X157464494Y-82389463D01*
X157354180Y-82330498D01*
X157234482Y-82294188D01*
X157110000Y-82281928D01*
X155310000Y-82281928D01*
X155185518Y-82294188D01*
X155065820Y-82330498D01*
X154955506Y-82389463D01*
X154858815Y-82468815D01*
X154779463Y-82565506D01*
X154720498Y-82675820D01*
X154714944Y-82694127D01*
X154648505Y-82627688D01*
X154397095Y-82459701D01*
X154117743Y-82343989D01*
X153821184Y-82285000D01*
X153518816Y-82285000D01*
X153222257Y-82343989D01*
X152942905Y-82459701D01*
X152691495Y-82627688D01*
X152477688Y-82841495D01*
X152417883Y-82931000D01*
X129522117Y-82931000D01*
X129462312Y-82841495D01*
X129248505Y-82627688D01*
X128997095Y-82459701D01*
X128717743Y-82343989D01*
X128421184Y-82285000D01*
X128118816Y-82285000D01*
X127822257Y-82343989D01*
X127542905Y-82459701D01*
X127291495Y-82627688D01*
X127225056Y-82694127D01*
X127219502Y-82675820D01*
X127160537Y-82565506D01*
X127081185Y-82468815D01*
X126984494Y-82389463D01*
X126874180Y-82330498D01*
X126754482Y-82294188D01*
X126630000Y-82281928D01*
X124830000Y-82281928D01*
X124705518Y-82294188D01*
X124585820Y-82330498D01*
X124475506Y-82389463D01*
X124378815Y-82468815D01*
X124299463Y-82565506D01*
X124240498Y-82675820D01*
X124204188Y-82795518D01*
X124191928Y-82920000D01*
X124191928Y-84720000D01*
X124204188Y-84844482D01*
X124240498Y-84964180D01*
X124299463Y-85074494D01*
X124378815Y-85171185D01*
X124475506Y-85250537D01*
X124585820Y-85309502D01*
X124705518Y-85345812D01*
X124830000Y-85358072D01*
X126630000Y-85358072D01*
X126754482Y-85345812D01*
X126874180Y-85309502D01*
X126984494Y-85250537D01*
X127081185Y-85171185D01*
X127160537Y-85074494D01*
X127219502Y-84964180D01*
X127225056Y-84945873D01*
X127291495Y-85012312D01*
X127542905Y-85180299D01*
X127822257Y-85296011D01*
X128118816Y-85355000D01*
X128421184Y-85355000D01*
X128717743Y-85296011D01*
X128997095Y-85180299D01*
X129248505Y-85012312D01*
X129462312Y-84798505D01*
X129522117Y-84709000D01*
X152417883Y-84709000D01*
X152477688Y-84798505D01*
X152691495Y-85012312D01*
X152942905Y-85180299D01*
X153222257Y-85296011D01*
X153518816Y-85355000D01*
X153821184Y-85355000D01*
X153926764Y-85333999D01*
X154731001Y-86138237D01*
X154731000Y-95051928D01*
X154020000Y-95051928D01*
X153895518Y-95064188D01*
X153775820Y-95100498D01*
X153665506Y-95159463D01*
X153568815Y-95238815D01*
X153489463Y-95335506D01*
X153430498Y-95445820D01*
X153394188Y-95565518D01*
X153381928Y-95690000D01*
X153381928Y-98770837D01*
X152945264Y-99207501D01*
X152911341Y-99235341D01*
X152800247Y-99370710D01*
X152717697Y-99525150D01*
X152666864Y-99692727D01*
X152654000Y-99823334D01*
X152654000Y-99823340D01*
X152649700Y-99867000D01*
X152654000Y-99910660D01*
X152654001Y-112955330D01*
X152649700Y-112999000D01*
X152666864Y-113173274D01*
X152717698Y-113340852D01*
X152800248Y-113495291D01*
X152870937Y-113581425D01*
X152911342Y-113630659D01*
X152945259Y-113658494D01*
X153761237Y-114474472D01*
X153717800Y-114692842D01*
X153717800Y-115024758D01*
X153782554Y-115350296D01*
X153909572Y-115656947D01*
X154093975Y-115932925D01*
X154328675Y-116167625D01*
X154347195Y-116180000D01*
X144218104Y-116180000D01*
X144305813Y-116092291D01*
X144517575Y-115775366D01*
X144663439Y-115423219D01*
X144737800Y-115049381D01*
X144737800Y-114668219D01*
X144663439Y-114294381D01*
X144517575Y-113942234D01*
X144305813Y-113625309D01*
X144036291Y-113355787D01*
X143719366Y-113144025D01*
X143367219Y-112998161D01*
X142993381Y-112923800D01*
X142612219Y-112923800D01*
X142238381Y-112998161D01*
X141886234Y-113144025D01*
X141569309Y-113355787D01*
X141299787Y-113625309D01*
X141088025Y-113942234D01*
X140972800Y-114220412D01*
X140857575Y-113942234D01*
X140645813Y-113625309D01*
X140376291Y-113355787D01*
X140059366Y-113144025D01*
X139707219Y-112998161D01*
X139333381Y-112923800D01*
X138952219Y-112923800D01*
X138578381Y-112998161D01*
X138226234Y-113144025D01*
X137909309Y-113355787D01*
X137639787Y-113625309D01*
X137428025Y-113942234D01*
X137282161Y-114294381D01*
X137207800Y-114668219D01*
X137207800Y-115049381D01*
X137282161Y-115423219D01*
X137428025Y-115775366D01*
X137639787Y-116092291D01*
X137727496Y-116180000D01*
X128167859Y-116180000D01*
X128182302Y-116152980D01*
X128218612Y-116033282D01*
X128230872Y-115908800D01*
X128227800Y-115144550D01*
X128069050Y-114985800D01*
X126669800Y-114985800D01*
X126669800Y-115005800D01*
X126415800Y-115005800D01*
X126415800Y-114985800D01*
X125016550Y-114985800D01*
X124857800Y-115144550D01*
X124854728Y-115908800D01*
X124866988Y-116033282D01*
X124869527Y-116041650D01*
X124530836Y-115939394D01*
X123988564Y-115651063D01*
X123512636Y-115262906D01*
X123121155Y-114789686D01*
X122829050Y-114249449D01*
X122692646Y-113808800D01*
X124854728Y-113808800D01*
X124857800Y-114573050D01*
X125016550Y-114731800D01*
X126415800Y-114731800D01*
X126415800Y-113332550D01*
X126669800Y-113332550D01*
X126669800Y-114731800D01*
X128069050Y-114731800D01*
X128227800Y-114573050D01*
X128230872Y-113808800D01*
X128218612Y-113684318D01*
X128182302Y-113564620D01*
X128123337Y-113454306D01*
X128043985Y-113357615D01*
X127947294Y-113278263D01*
X127836980Y-113219298D01*
X127717282Y-113182988D01*
X127592800Y-113170728D01*
X126828550Y-113173800D01*
X126669800Y-113332550D01*
X126415800Y-113332550D01*
X126257050Y-113173800D01*
X125492800Y-113170728D01*
X125368318Y-113182988D01*
X125248620Y-113219298D01*
X125138306Y-113278263D01*
X125041615Y-113357615D01*
X124962263Y-113454306D01*
X124903298Y-113564620D01*
X124866988Y-113684318D01*
X124854728Y-113808800D01*
X122692646Y-113808800D01*
X122647437Y-113662756D01*
X122580000Y-113021130D01*
X122580000Y-109097418D01*
X124255400Y-109097418D01*
X124255400Y-109342582D01*
X124303229Y-109583036D01*
X124397050Y-109809539D01*
X124533256Y-110013386D01*
X124706614Y-110186744D01*
X124910461Y-110322950D01*
X125136964Y-110416771D01*
X125377418Y-110464600D01*
X125622582Y-110464600D01*
X125863036Y-110416771D01*
X126089539Y-110322950D01*
X126250000Y-110215734D01*
X126410461Y-110322950D01*
X126636964Y-110416771D01*
X126877418Y-110464600D01*
X127122582Y-110464600D01*
X127363036Y-110416771D01*
X127589539Y-110322950D01*
X127793386Y-110186744D01*
X127966744Y-110013386D01*
X128102950Y-109809539D01*
X128196771Y-109583036D01*
X128244600Y-109342582D01*
X128244600Y-109097418D01*
X128196771Y-108856964D01*
X128102950Y-108630461D01*
X127966744Y-108426614D01*
X127793386Y-108253256D01*
X127589539Y-108117050D01*
X127363036Y-108023229D01*
X127122582Y-107975400D01*
X126877418Y-107975400D01*
X126636964Y-108023229D01*
X126410461Y-108117050D01*
X126250000Y-108224266D01*
X126089539Y-108117050D01*
X125863036Y-108023229D01*
X125622582Y-107975400D01*
X125377418Y-107975400D01*
X125136964Y-108023229D01*
X124910461Y-108117050D01*
X124706614Y-108253256D01*
X124533256Y-108426614D01*
X124397050Y-108630461D01*
X124303229Y-108856964D01*
X124255400Y-109097418D01*
X122580000Y-109097418D01*
X122580000Y-99890000D01*
X124081928Y-99890000D01*
X124094188Y-100014482D01*
X124130498Y-100134180D01*
X124189463Y-100244494D01*
X124268815Y-100341185D01*
X124365506Y-100420537D01*
X124475820Y-100479502D01*
X124595518Y-100515812D01*
X124720000Y-100528072D01*
X126034250Y-100525000D01*
X126193000Y-100366250D01*
X126193000Y-97917000D01*
X126447000Y-97917000D01*
X126447000Y-100366250D01*
X126605750Y-100525000D01*
X127920000Y-100528072D01*
X128044482Y-100515812D01*
X128164180Y-100479502D01*
X128274494Y-100420537D01*
X128371185Y-100341185D01*
X128450537Y-100244494D01*
X128509502Y-100134180D01*
X128545812Y-100014482D01*
X128558072Y-99890000D01*
X128555000Y-98075750D01*
X128396250Y-97917000D01*
X126447000Y-97917000D01*
X126193000Y-97917000D01*
X124243750Y-97917000D01*
X124085000Y-98075750D01*
X124081928Y-99890000D01*
X122580000Y-99890000D01*
X122580000Y-95690000D01*
X124081928Y-95690000D01*
X124085000Y-97504250D01*
X124243750Y-97663000D01*
X126193000Y-97663000D01*
X126193000Y-95213750D01*
X126447000Y-95213750D01*
X126447000Y-97663000D01*
X128396250Y-97663000D01*
X128555000Y-97504250D01*
X128558072Y-95690000D01*
X128545812Y-95565518D01*
X128509502Y-95445820D01*
X128450537Y-95335506D01*
X128371185Y-95238815D01*
X128274494Y-95159463D01*
X128164180Y-95100498D01*
X128044482Y-95064188D01*
X127920000Y-95051928D01*
X126605750Y-95055000D01*
X126447000Y-95213750D01*
X126193000Y-95213750D01*
X126034250Y-95055000D01*
X124720000Y-95051928D01*
X124595518Y-95064188D01*
X124475820Y-95100498D01*
X124365506Y-95159463D01*
X124268815Y-95238815D01*
X124189463Y-95335506D01*
X124130498Y-95445820D01*
X124094188Y-95565518D01*
X124081928Y-95690000D01*
X122580000Y-95690000D01*
X122580000Y-85891441D01*
X136271000Y-85891441D01*
X136271000Y-86066559D01*
X136305164Y-86238312D01*
X136372179Y-86400099D01*
X136469469Y-86545704D01*
X136593296Y-86669531D01*
X136738901Y-86766821D01*
X136900688Y-86833836D01*
X137072441Y-86868000D01*
X137247559Y-86868000D01*
X137419312Y-86833836D01*
X137581099Y-86766821D01*
X137581729Y-86766400D01*
X139405271Y-86766400D01*
X139405901Y-86766821D01*
X139567688Y-86833836D01*
X139739441Y-86868000D01*
X139914559Y-86868000D01*
X140086312Y-86833836D01*
X140248099Y-86766821D01*
X140307607Y-86727059D01*
X142748000Y-86727059D01*
X142748000Y-86902177D01*
X142782164Y-87073930D01*
X142849179Y-87235717D01*
X142946469Y-87381322D01*
X143070296Y-87505149D01*
X143215901Y-87602439D01*
X143377688Y-87669454D01*
X143549441Y-87703618D01*
X143724559Y-87703618D01*
X143896312Y-87669454D01*
X144058099Y-87602439D01*
X144058729Y-87602018D01*
X145935653Y-87602018D01*
X145936283Y-87602439D01*
X146098070Y-87669454D01*
X146269823Y-87703618D01*
X146444941Y-87703618D01*
X146616694Y-87669454D01*
X146778481Y-87602439D01*
X146924086Y-87505149D01*
X147047913Y-87381322D01*
X147145203Y-87235717D01*
X147212218Y-87073930D01*
X147246382Y-86902177D01*
X147246382Y-86727059D01*
X147212218Y-86555306D01*
X147145203Y-86393519D01*
X147047913Y-86247914D01*
X146924086Y-86124087D01*
X146778481Y-86026797D01*
X146616694Y-85959782D01*
X146444941Y-85925618D01*
X146269823Y-85925618D01*
X146098070Y-85959782D01*
X145936283Y-86026797D01*
X145935653Y-86027218D01*
X144058729Y-86027218D01*
X144058099Y-86026797D01*
X143896312Y-85959782D01*
X143724559Y-85925618D01*
X143549441Y-85925618D01*
X143377688Y-85959782D01*
X143215901Y-86026797D01*
X143070296Y-86124087D01*
X142946469Y-86247914D01*
X142849179Y-86393519D01*
X142782164Y-86555306D01*
X142748000Y-86727059D01*
X140307607Y-86727059D01*
X140393704Y-86669531D01*
X140517531Y-86545704D01*
X140614821Y-86400099D01*
X140681836Y-86238312D01*
X140716000Y-86066559D01*
X140716000Y-85891441D01*
X140681836Y-85719688D01*
X140614821Y-85557901D01*
X140517531Y-85412296D01*
X140393704Y-85288469D01*
X140248099Y-85191179D01*
X140086312Y-85124164D01*
X139914559Y-85090000D01*
X139739441Y-85090000D01*
X139567688Y-85124164D01*
X139405901Y-85191179D01*
X139405271Y-85191600D01*
X137581729Y-85191600D01*
X137581099Y-85191179D01*
X137419312Y-85124164D01*
X137247559Y-85090000D01*
X137072441Y-85090000D01*
X136900688Y-85124164D01*
X136738901Y-85191179D01*
X136593296Y-85288469D01*
X136469469Y-85412296D01*
X136372179Y-85557901D01*
X136305164Y-85719688D01*
X136271000Y-85891441D01*
X122580000Y-85891441D01*
X122580000Y-81312279D01*
X122618909Y-80915455D01*
X122724780Y-80564792D01*
X122896744Y-80241375D01*
X123128254Y-79957516D01*
X123410486Y-79724035D01*
X123732695Y-79549817D01*
X124082614Y-79441498D01*
X124477443Y-79400000D01*
X157447721Y-79400000D01*
X157844545Y-79438909D01*
%TA.AperFunction,Conductor*%
D19*
G36*
X157844545Y-79438909D02*
G01*
X158195208Y-79544780D01*
X158518625Y-79716744D01*
X158802484Y-79948254D01*
X159035965Y-80230486D01*
X159210183Y-80552695D01*
X159318502Y-80902614D01*
X159360001Y-81297452D01*
X159360000Y-112997721D01*
X159296904Y-113641221D01*
X159119394Y-114229164D01*
X158831063Y-114771436D01*
X158442906Y-115247364D01*
X157969686Y-115638845D01*
X157429449Y-115930950D01*
X156842756Y-116112563D01*
X156495488Y-116149062D01*
X156711625Y-115932925D01*
X156896028Y-115656947D01*
X157023046Y-115350296D01*
X157087800Y-115024758D01*
X157087800Y-114692842D01*
X157023046Y-114367304D01*
X156896028Y-114060653D01*
X156711625Y-113784675D01*
X156476925Y-113549975D01*
X156200947Y-113365572D01*
X155894296Y-113238554D01*
X155568758Y-113173800D01*
X155236842Y-113173800D01*
X155018472Y-113217237D01*
X154432000Y-112630765D01*
X154432000Y-110356725D01*
X154576964Y-110416771D01*
X154817418Y-110464600D01*
X155062582Y-110464600D01*
X155303036Y-110416771D01*
X155529539Y-110322950D01*
X155690000Y-110215734D01*
X155850461Y-110322950D01*
X156076964Y-110416771D01*
X156317418Y-110464600D01*
X156562582Y-110464600D01*
X156803036Y-110416771D01*
X157029539Y-110322950D01*
X157233386Y-110186744D01*
X157406744Y-110013386D01*
X157542950Y-109809539D01*
X157636771Y-109583036D01*
X157684600Y-109342582D01*
X157684600Y-109097418D01*
X157636771Y-108856964D01*
X157542950Y-108630461D01*
X157406744Y-108426614D01*
X157233386Y-108253256D01*
X157029539Y-108117050D01*
X156803036Y-108023229D01*
X156562582Y-107975400D01*
X156317418Y-107975400D01*
X156076964Y-108023229D01*
X155850461Y-108117050D01*
X155690000Y-108224266D01*
X155529539Y-108117050D01*
X155303036Y-108023229D01*
X155062582Y-107975400D01*
X154817418Y-107975400D01*
X154576964Y-108023229D01*
X154432000Y-108083275D01*
X154432000Y-100528072D01*
X157220000Y-100528072D01*
X157344482Y-100515812D01*
X157464180Y-100479502D01*
X157574494Y-100420537D01*
X157671185Y-100341185D01*
X157750537Y-100244494D01*
X157809502Y-100134180D01*
X157845812Y-100014482D01*
X157858072Y-99890000D01*
X157858072Y-95690000D01*
X157845812Y-95565518D01*
X157809502Y-95445820D01*
X157750537Y-95335506D01*
X157671185Y-95238815D01*
X157574494Y-95159463D01*
X157464180Y-95100498D01*
X157344482Y-95064188D01*
X157220000Y-95051928D01*
X156509000Y-95051928D01*
X156509000Y-85813659D01*
X156513300Y-85769999D01*
X156509000Y-85726339D01*
X156509000Y-85726333D01*
X156496136Y-85595726D01*
X156496136Y-85595724D01*
X156445302Y-85428147D01*
X156436829Y-85412296D01*
X156407846Y-85358072D01*
X157110000Y-85358072D01*
X157234482Y-85345812D01*
X157354180Y-85309502D01*
X157464494Y-85250537D01*
X157561185Y-85171185D01*
X157640537Y-85074494D01*
X157699502Y-84964180D01*
X157735812Y-84844482D01*
X157748072Y-84720000D01*
X157748072Y-82920000D01*
X157735812Y-82795518D01*
X157699502Y-82675820D01*
X157640537Y-82565506D01*
X157561185Y-82468815D01*
X157464494Y-82389463D01*
X157354180Y-82330498D01*
X157234482Y-82294188D01*
X157110000Y-82281928D01*
X155310000Y-82281928D01*
X155185518Y-82294188D01*
X155065820Y-82330498D01*
X154955506Y-82389463D01*
X154858815Y-82468815D01*
X154779463Y-82565506D01*
X154720498Y-82675820D01*
X154714944Y-82694127D01*
X154648505Y-82627688D01*
X154397095Y-82459701D01*
X154117743Y-82343989D01*
X153821184Y-82285000D01*
X153518816Y-82285000D01*
X153222257Y-82343989D01*
X152942905Y-82459701D01*
X152691495Y-82627688D01*
X152477688Y-82841495D01*
X152417883Y-82931000D01*
X129522117Y-82931000D01*
X129462312Y-82841495D01*
X129248505Y-82627688D01*
X128997095Y-82459701D01*
X128717743Y-82343989D01*
X128421184Y-82285000D01*
X128118816Y-82285000D01*
X127822257Y-82343989D01*
X127542905Y-82459701D01*
X127291495Y-82627688D01*
X127225056Y-82694127D01*
X127219502Y-82675820D01*
X127160537Y-82565506D01*
X127081185Y-82468815D01*
X126984494Y-82389463D01*
X126874180Y-82330498D01*
X126754482Y-82294188D01*
X126630000Y-82281928D01*
X124830000Y-82281928D01*
X124705518Y-82294188D01*
X124585820Y-82330498D01*
X124475506Y-82389463D01*
X124378815Y-82468815D01*
X124299463Y-82565506D01*
X124240498Y-82675820D01*
X124204188Y-82795518D01*
X124191928Y-82920000D01*
X124191928Y-84720000D01*
X124204188Y-84844482D01*
X124240498Y-84964180D01*
X124299463Y-85074494D01*
X124378815Y-85171185D01*
X124475506Y-85250537D01*
X124585820Y-85309502D01*
X124705518Y-85345812D01*
X124830000Y-85358072D01*
X126630000Y-85358072D01*
X126754482Y-85345812D01*
X126874180Y-85309502D01*
X126984494Y-85250537D01*
X127081185Y-85171185D01*
X127160537Y-85074494D01*
X127219502Y-84964180D01*
X127225056Y-84945873D01*
X127291495Y-85012312D01*
X127542905Y-85180299D01*
X127822257Y-85296011D01*
X128118816Y-85355000D01*
X128421184Y-85355000D01*
X128717743Y-85296011D01*
X128997095Y-85180299D01*
X129248505Y-85012312D01*
X129462312Y-84798505D01*
X129522117Y-84709000D01*
X152417883Y-84709000D01*
X152477688Y-84798505D01*
X152691495Y-85012312D01*
X152942905Y-85180299D01*
X153222257Y-85296011D01*
X153518816Y-85355000D01*
X153821184Y-85355000D01*
X153926764Y-85333999D01*
X154731001Y-86138237D01*
X154731000Y-95051928D01*
X154020000Y-95051928D01*
X153895518Y-95064188D01*
X153775820Y-95100498D01*
X153665506Y-95159463D01*
X153568815Y-95238815D01*
X153489463Y-95335506D01*
X153430498Y-95445820D01*
X153394188Y-95565518D01*
X153381928Y-95690000D01*
X153381928Y-98770837D01*
X152945264Y-99207501D01*
X152911341Y-99235341D01*
X152800247Y-99370710D01*
X152717697Y-99525150D01*
X152666864Y-99692727D01*
X152654000Y-99823334D01*
X152654000Y-99823340D01*
X152649700Y-99867000D01*
X152654000Y-99910660D01*
X152654001Y-112955330D01*
X152649700Y-112999000D01*
X152666864Y-113173274D01*
X152717698Y-113340852D01*
X152800248Y-113495291D01*
X152870937Y-113581425D01*
X152911342Y-113630659D01*
X152945259Y-113658494D01*
X153761237Y-114474472D01*
X153717800Y-114692842D01*
X153717800Y-115024758D01*
X153782554Y-115350296D01*
X153909572Y-115656947D01*
X154093975Y-115932925D01*
X154328675Y-116167625D01*
X154347195Y-116180000D01*
X144218104Y-116180000D01*
X144305813Y-116092291D01*
X144517575Y-115775366D01*
X144663439Y-115423219D01*
X144737800Y-115049381D01*
X144737800Y-114668219D01*
X144663439Y-114294381D01*
X144517575Y-113942234D01*
X144305813Y-113625309D01*
X144036291Y-113355787D01*
X143719366Y-113144025D01*
X143367219Y-112998161D01*
X142993381Y-112923800D01*
X142612219Y-112923800D01*
X142238381Y-112998161D01*
X141886234Y-113144025D01*
X141569309Y-113355787D01*
X141299787Y-113625309D01*
X141088025Y-113942234D01*
X140972800Y-114220412D01*
X140857575Y-113942234D01*
X140645813Y-113625309D01*
X140376291Y-113355787D01*
X140059366Y-113144025D01*
X139707219Y-112998161D01*
X139333381Y-112923800D01*
X138952219Y-112923800D01*
X138578381Y-112998161D01*
X138226234Y-113144025D01*
X137909309Y-113355787D01*
X137639787Y-113625309D01*
X137428025Y-113942234D01*
X137282161Y-114294381D01*
X137207800Y-114668219D01*
X137207800Y-115049381D01*
X137282161Y-115423219D01*
X137428025Y-115775366D01*
X137639787Y-116092291D01*
X137727496Y-116180000D01*
X128167859Y-116180000D01*
X128182302Y-116152980D01*
X128218612Y-116033282D01*
X128230872Y-115908800D01*
X128227800Y-115144550D01*
X128069050Y-114985800D01*
X126669800Y-114985800D01*
X126669800Y-115005800D01*
X126415800Y-115005800D01*
X126415800Y-114985800D01*
X125016550Y-114985800D01*
X124857800Y-115144550D01*
X124854728Y-115908800D01*
X124866988Y-116033282D01*
X124869527Y-116041650D01*
X124530836Y-115939394D01*
X123988564Y-115651063D01*
X123512636Y-115262906D01*
X123121155Y-114789686D01*
X122829050Y-114249449D01*
X122692646Y-113808800D01*
X124854728Y-113808800D01*
X124857800Y-114573050D01*
X125016550Y-114731800D01*
X126415800Y-114731800D01*
X126415800Y-113332550D01*
X126669800Y-113332550D01*
X126669800Y-114731800D01*
X128069050Y-114731800D01*
X128227800Y-114573050D01*
X128230872Y-113808800D01*
X128218612Y-113684318D01*
X128182302Y-113564620D01*
X128123337Y-113454306D01*
X128043985Y-113357615D01*
X127947294Y-113278263D01*
X127836980Y-113219298D01*
X127717282Y-113182988D01*
X127592800Y-113170728D01*
X126828550Y-113173800D01*
X126669800Y-113332550D01*
X126415800Y-113332550D01*
X126257050Y-113173800D01*
X125492800Y-113170728D01*
X125368318Y-113182988D01*
X125248620Y-113219298D01*
X125138306Y-113278263D01*
X125041615Y-113357615D01*
X124962263Y-113454306D01*
X124903298Y-113564620D01*
X124866988Y-113684318D01*
X124854728Y-113808800D01*
X122692646Y-113808800D01*
X122647437Y-113662756D01*
X122580000Y-113021130D01*
X122580000Y-109097418D01*
X124255400Y-109097418D01*
X124255400Y-109342582D01*
X124303229Y-109583036D01*
X124397050Y-109809539D01*
X124533256Y-110013386D01*
X124706614Y-110186744D01*
X124910461Y-110322950D01*
X125136964Y-110416771D01*
X125377418Y-110464600D01*
X125622582Y-110464600D01*
X125863036Y-110416771D01*
X126089539Y-110322950D01*
X126250000Y-110215734D01*
X126410461Y-110322950D01*
X126636964Y-110416771D01*
X126877418Y-110464600D01*
X127122582Y-110464600D01*
X127363036Y-110416771D01*
X127589539Y-110322950D01*
X127793386Y-110186744D01*
X127966744Y-110013386D01*
X128102950Y-109809539D01*
X128196771Y-109583036D01*
X128244600Y-109342582D01*
X128244600Y-109097418D01*
X128196771Y-108856964D01*
X128102950Y-108630461D01*
X127966744Y-108426614D01*
X127793386Y-108253256D01*
X127589539Y-108117050D01*
X127363036Y-108023229D01*
X127122582Y-107975400D01*
X126877418Y-107975400D01*
X126636964Y-108023229D01*
X126410461Y-108117050D01*
X126250000Y-108224266D01*
X126089539Y-108117050D01*
X125863036Y-108023229D01*
X125622582Y-107975400D01*
X125377418Y-107975400D01*
X125136964Y-108023229D01*
X124910461Y-108117050D01*
X124706614Y-108253256D01*
X124533256Y-108426614D01*
X124397050Y-108630461D01*
X124303229Y-108856964D01*
X124255400Y-109097418D01*
X122580000Y-109097418D01*
X122580000Y-99890000D01*
X124081928Y-99890000D01*
X124094188Y-100014482D01*
X124130498Y-100134180D01*
X124189463Y-100244494D01*
X124268815Y-100341185D01*
X124365506Y-100420537D01*
X124475820Y-100479502D01*
X124595518Y-100515812D01*
X124720000Y-100528072D01*
X126034250Y-100525000D01*
X126193000Y-100366250D01*
X126193000Y-97917000D01*
X126447000Y-97917000D01*
X126447000Y-100366250D01*
X126605750Y-100525000D01*
X127920000Y-100528072D01*
X128044482Y-100515812D01*
X128164180Y-100479502D01*
X128274494Y-100420537D01*
X128371185Y-100341185D01*
X128450537Y-100244494D01*
X128509502Y-100134180D01*
X128545812Y-100014482D01*
X128558072Y-99890000D01*
X128555000Y-98075750D01*
X128396250Y-97917000D01*
X126447000Y-97917000D01*
X126193000Y-97917000D01*
X124243750Y-97917000D01*
X124085000Y-98075750D01*
X124081928Y-99890000D01*
X122580000Y-99890000D01*
X122580000Y-95690000D01*
X124081928Y-95690000D01*
X124085000Y-97504250D01*
X124243750Y-97663000D01*
X126193000Y-97663000D01*
X126193000Y-95213750D01*
X126447000Y-95213750D01*
X126447000Y-97663000D01*
X128396250Y-97663000D01*
X128555000Y-97504250D01*
X128558072Y-95690000D01*
X128545812Y-95565518D01*
X128509502Y-95445820D01*
X128450537Y-95335506D01*
X128371185Y-95238815D01*
X128274494Y-95159463D01*
X128164180Y-95100498D01*
X128044482Y-95064188D01*
X127920000Y-95051928D01*
X126605750Y-95055000D01*
X126447000Y-95213750D01*
X126193000Y-95213750D01*
X126034250Y-95055000D01*
X124720000Y-95051928D01*
X124595518Y-95064188D01*
X124475820Y-95100498D01*
X124365506Y-95159463D01*
X124268815Y-95238815D01*
X124189463Y-95335506D01*
X124130498Y-95445820D01*
X124094188Y-95565518D01*
X124081928Y-95690000D01*
X122580000Y-95690000D01*
X122580000Y-85891441D01*
X136271000Y-85891441D01*
X136271000Y-86066559D01*
X136305164Y-86238312D01*
X136372179Y-86400099D01*
X136469469Y-86545704D01*
X136593296Y-86669531D01*
X136738901Y-86766821D01*
X136900688Y-86833836D01*
X137072441Y-86868000D01*
X137247559Y-86868000D01*
X137419312Y-86833836D01*
X137581099Y-86766821D01*
X137581729Y-86766400D01*
X139405271Y-86766400D01*
X139405901Y-86766821D01*
X139567688Y-86833836D01*
X139739441Y-86868000D01*
X139914559Y-86868000D01*
X140086312Y-86833836D01*
X140248099Y-86766821D01*
X140307607Y-86727059D01*
X142748000Y-86727059D01*
X142748000Y-86902177D01*
X142782164Y-87073930D01*
X142849179Y-87235717D01*
X142946469Y-87381322D01*
X143070296Y-87505149D01*
X143215901Y-87602439D01*
X143377688Y-87669454D01*
X143549441Y-87703618D01*
X143724559Y-87703618D01*
X143896312Y-87669454D01*
X144058099Y-87602439D01*
X144058729Y-87602018D01*
X145935653Y-87602018D01*
X145936283Y-87602439D01*
X146098070Y-87669454D01*
X146269823Y-87703618D01*
X146444941Y-87703618D01*
X146616694Y-87669454D01*
X146778481Y-87602439D01*
X146924086Y-87505149D01*
X147047913Y-87381322D01*
X147145203Y-87235717D01*
X147212218Y-87073930D01*
X147246382Y-86902177D01*
X147246382Y-86727059D01*
X147212218Y-86555306D01*
X147145203Y-86393519D01*
X147047913Y-86247914D01*
X146924086Y-86124087D01*
X146778481Y-86026797D01*
X146616694Y-85959782D01*
X146444941Y-85925618D01*
X146269823Y-85925618D01*
X146098070Y-85959782D01*
X145936283Y-86026797D01*
X145935653Y-86027218D01*
X144058729Y-86027218D01*
X144058099Y-86026797D01*
X143896312Y-85959782D01*
X143724559Y-85925618D01*
X143549441Y-85925618D01*
X143377688Y-85959782D01*
X143215901Y-86026797D01*
X143070296Y-86124087D01*
X142946469Y-86247914D01*
X142849179Y-86393519D01*
X142782164Y-86555306D01*
X142748000Y-86727059D01*
X140307607Y-86727059D01*
X140393704Y-86669531D01*
X140517531Y-86545704D01*
X140614821Y-86400099D01*
X140681836Y-86238312D01*
X140716000Y-86066559D01*
X140716000Y-85891441D01*
X140681836Y-85719688D01*
X140614821Y-85557901D01*
X140517531Y-85412296D01*
X140393704Y-85288469D01*
X140248099Y-85191179D01*
X140086312Y-85124164D01*
X139914559Y-85090000D01*
X139739441Y-85090000D01*
X139567688Y-85124164D01*
X139405901Y-85191179D01*
X139405271Y-85191600D01*
X137581729Y-85191600D01*
X137581099Y-85191179D01*
X137419312Y-85124164D01*
X137247559Y-85090000D01*
X137072441Y-85090000D01*
X136900688Y-85124164D01*
X136738901Y-85191179D01*
X136593296Y-85288469D01*
X136469469Y-85412296D01*
X136372179Y-85557901D01*
X136305164Y-85719688D01*
X136271000Y-85891441D01*
X122580000Y-85891441D01*
X122580000Y-81312279D01*
X122618909Y-80915455D01*
X122724780Y-80564792D01*
X122896744Y-80241375D01*
X123128254Y-79957516D01*
X123410486Y-79724035D01*
X123732695Y-79549817D01*
X124082614Y-79441498D01*
X124477443Y-79400000D01*
X157447721Y-79400000D01*
X157844545Y-79438909D01*
G37*
%TD.AperFunction*%
%TD*%
M02*
