%TF.GenerationSoftware,KiCad,Pcbnew,(5.1.7)-1*%
%TF.CreationDate,2021-04-21T21:28:38-05:00*%
%TF.ProjectId,blinky_kit_pcb,626c696e-6b79-45f6-9b69-745f7063622e,1.0*%
%TF.SameCoordinates,Original*%
%TF.FileFunction,Legend,Bot*%
%TF.FilePolarity,Positive*%
%FSLAX46Y46*%
G04 Gerber Fmt 4.6, Leading zero omitted, Abs format (unit mm)*
G04 Created by KiCad (PCBNEW (5.1.7)-1) date 2021-04-21 21:28:38*
%MOMM*%
%LPD*%
G01*
G04 APERTURE LIST*
%ADD10C,0.150000*%
G04 APERTURE END LIST*
D10*
X145382714Y-79462380D02*
X144763666Y-79462380D01*
X145097000Y-79843333D01*
X144954142Y-79843333D01*
X144858904Y-79890952D01*
X144811285Y-79938571D01*
X144763666Y-80033809D01*
X144763666Y-80271904D01*
X144811285Y-80367142D01*
X144858904Y-80414761D01*
X144954142Y-80462380D01*
X145239857Y-80462380D01*
X145335095Y-80414761D01*
X145382714Y-80367142D01*
X144335095Y-80081428D02*
X143573190Y-80081428D01*
X142906523Y-79462380D02*
X142811285Y-79462380D01*
X142716047Y-79510000D01*
X142668428Y-79557619D01*
X142620809Y-79652857D01*
X142573190Y-79843333D01*
X142573190Y-80081428D01*
X142620809Y-80271904D01*
X142668428Y-80367142D01*
X142716047Y-80414761D01*
X142811285Y-80462380D01*
X142906523Y-80462380D01*
X143001761Y-80414761D01*
X143049380Y-80367142D01*
X143097000Y-80271904D01*
X143144619Y-80081428D01*
X143144619Y-79843333D01*
X143097000Y-79652857D01*
X143049380Y-79557619D01*
X143001761Y-79510000D01*
X142906523Y-79462380D01*
X141954142Y-79462380D02*
X141858904Y-79462380D01*
X141763666Y-79510000D01*
X141716047Y-79557619D01*
X141668428Y-79652857D01*
X141620809Y-79843333D01*
X141620809Y-80081428D01*
X141668428Y-80271904D01*
X141716047Y-80367142D01*
X141763666Y-80414761D01*
X141858904Y-80462380D01*
X141954142Y-80462380D01*
X142049380Y-80414761D01*
X142097000Y-80367142D01*
X142144619Y-80271904D01*
X142192238Y-80081428D01*
X142192238Y-79843333D01*
X142144619Y-79652857D01*
X142097000Y-79557619D01*
X142049380Y-79510000D01*
X141954142Y-79462380D01*
X141001761Y-79462380D02*
X140906523Y-79462380D01*
X140811285Y-79510000D01*
X140763666Y-79557619D01*
X140716047Y-79652857D01*
X140668428Y-79843333D01*
X140668428Y-80081428D01*
X140716047Y-80271904D01*
X140763666Y-80367142D01*
X140811285Y-80414761D01*
X140906523Y-80462380D01*
X141001761Y-80462380D01*
X141097000Y-80414761D01*
X141144619Y-80367142D01*
X141192238Y-80271904D01*
X141239857Y-80081428D01*
X141239857Y-79843333D01*
X141192238Y-79652857D01*
X141144619Y-79557619D01*
X141097000Y-79510000D01*
X141001761Y-79462380D01*
X140049380Y-79462380D02*
X139954142Y-79462380D01*
X139858904Y-79510000D01*
X139811285Y-79557619D01*
X139763666Y-79652857D01*
X139716047Y-79843333D01*
X139716047Y-80081428D01*
X139763666Y-80271904D01*
X139811285Y-80367142D01*
X139858904Y-80414761D01*
X139954142Y-80462380D01*
X140049380Y-80462380D01*
X140144619Y-80414761D01*
X140192238Y-80367142D01*
X140239857Y-80271904D01*
X140287476Y-80081428D01*
X140287476Y-79843333D01*
X140239857Y-79652857D01*
X140192238Y-79557619D01*
X140144619Y-79510000D01*
X140049380Y-79462380D01*
X139097000Y-79462380D02*
X139001761Y-79462380D01*
X138906523Y-79510000D01*
X138858904Y-79557619D01*
X138811285Y-79652857D01*
X138763666Y-79843333D01*
X138763666Y-80081428D01*
X138811285Y-80271904D01*
X138858904Y-80367142D01*
X138906523Y-80414761D01*
X139001761Y-80462380D01*
X139097000Y-80462380D01*
X139192238Y-80414761D01*
X139239857Y-80367142D01*
X139287476Y-80271904D01*
X139335095Y-80081428D01*
X139335095Y-79843333D01*
X139287476Y-79652857D01*
X139239857Y-79557619D01*
X139192238Y-79510000D01*
X139097000Y-79462380D01*
X138192238Y-79890952D02*
X138287476Y-79843333D01*
X138335095Y-79795714D01*
X138382714Y-79700476D01*
X138382714Y-79652857D01*
X138335095Y-79557619D01*
X138287476Y-79510000D01*
X138192238Y-79462380D01*
X138001761Y-79462380D01*
X137906523Y-79510000D01*
X137858904Y-79557619D01*
X137811285Y-79652857D01*
X137811285Y-79700476D01*
X137858904Y-79795714D01*
X137906523Y-79843333D01*
X138001761Y-79890952D01*
X138192238Y-79890952D01*
X138287476Y-79938571D01*
X138335095Y-79986190D01*
X138382714Y-80081428D01*
X138382714Y-80271904D01*
X138335095Y-80367142D01*
X138287476Y-80414761D01*
X138192238Y-80462380D01*
X138001761Y-80462380D01*
X137906523Y-80414761D01*
X137858904Y-80367142D01*
X137811285Y-80271904D01*
X137811285Y-80081428D01*
X137858904Y-79986190D01*
X137906523Y-79938571D01*
X138001761Y-79890952D01*
X137192238Y-79462380D02*
X137097000Y-79462380D01*
X137001761Y-79510000D01*
X136954142Y-79557619D01*
X136906523Y-79652857D01*
X136858904Y-79843333D01*
X136858904Y-80081428D01*
X136906523Y-80271904D01*
X136954142Y-80367142D01*
X137001761Y-80414761D01*
X137097000Y-80462380D01*
X137192238Y-80462380D01*
X137287476Y-80414761D01*
X137335095Y-80367142D01*
X137382714Y-80271904D01*
X137430333Y-80081428D01*
X137430333Y-79843333D01*
X137382714Y-79652857D01*
X137335095Y-79557619D01*
X137287476Y-79510000D01*
X137192238Y-79462380D01*
X157480047Y-114879428D02*
X158241952Y-114879428D01*
X157861000Y-115260380D02*
X157861000Y-114498476D01*
X123571047Y-114879428D02*
X124332952Y-114879428D01*
%TO.C,BT1*%
X157970000Y-89790000D02*
X123970000Y-89790000D01*
X157970000Y-105790000D02*
X157970000Y-89790000D01*
X123970000Y-105790000D02*
X157970000Y-105790000D01*
X123970000Y-89790000D02*
X123970000Y-105790000D01*
X141755714Y-97718571D02*
X141612857Y-97766190D01*
X141565238Y-97813809D01*
X141517619Y-97909047D01*
X141517619Y-98051904D01*
X141565238Y-98147142D01*
X141612857Y-98194761D01*
X141708095Y-98242380D01*
X142089047Y-98242380D01*
X142089047Y-97242380D01*
X141755714Y-97242380D01*
X141660476Y-97290000D01*
X141612857Y-97337619D01*
X141565238Y-97432857D01*
X141565238Y-97528095D01*
X141612857Y-97623333D01*
X141660476Y-97670952D01*
X141755714Y-97718571D01*
X142089047Y-97718571D01*
X141231904Y-97242380D02*
X140660476Y-97242380D01*
X140946190Y-98242380D02*
X140946190Y-97242380D01*
X139803333Y-98242380D02*
X140374761Y-98242380D01*
X140089047Y-98242380D02*
X140089047Y-97242380D01*
X140184285Y-97385238D01*
X140279523Y-97480476D01*
X140374761Y-97528095D01*
%TD*%
M02*
